# MagicaVoxel @ Ephtracy

# group
o lower

# material
mtllib walk3-0-lower.mtl
usemtl palette

# normals
vn -1 0 0
vn 1 0 0
vn 0 0 1
vn 0 0 -1
vn 0 -1 0
vn 0 1 0

# texcoords
vt 0.00195313 0.5
vt 0.0722656 0.5
vt 0.0917969 0.5
vt 0.158203 0.5
vt 0.162109 0.5
vt 0.166016 0.5

# verts
v -0.4 0.1 0.4
v -0.4 0.1 0.1
v -0.4 0.1 -0.1
v -0.4 0.2 0.3
v -0.4 0.2 0.1
v -0.4 0.2 -0.1
v -0.4 0.2 -0.2
v -0.4 0.3 0.4
v -0.4 0.3 0.3
v -0.4 0.3 0.1
v -0.4 0.3 -0.2
v -0.4 0.4 0.1
v -0.4 0.4 -0.2
v -0.4 0.5 0.1
v -0.4 0.5 -0.2
v -0.4 0.6 0.1
v -0.4 0.6 -0.2
v -0.4 0.7 0.1
v -0.4 0.7 -0.2
v -0.3 0.1 -0.1
v -0.3 0.1 -0.2
v -0.3 0.2 -0.1
v -0.3 0.2 -0.2
v -0.3 0.3 0.5
v -0.3 0.3 0.4
v -0.3 0.4 0.5
v -0.3 0.4 0.4
v 0.1 0.1 0.4
v 0.1 0.1 0.1
v 0.1 0.1 -0.1
v 0.1 0.2 0.3
v 0.1 0.2 0.1
v 0.1 0.2 -0.1
v 0.1 0.2 -0.2
v 0.1 0.3 0.4
v 0.1 0.3 0.3
v 0.1 0.3 0.1
v 0.1 0.3 -0.2
v 0.1 0.4 0.1
v 0.1 0.4 -0.2
v 0.1 0.5 0.1
v 0.1 0.5 -0.2
v 0.1 0.6 0.1
v 0.1 0.6 -0.2
v 0.1 0.7 0.1
v 0.1 0.7 -0.2
v 0.2 0.1 -0.1
v 0.2 0.1 -0.2
v 0.2 0.2 -0.1
v 0.2 0.2 -0.2
v 0.2 0.3 0.5
v 0.2 0.3 0.4
v 0.2 0.4 0.5
v 0.2 0.4 0.4
v -0.2 0.1 -0.1
v -0.2 0.1 -0.2
v -0.2 0.2 -0.1
v -0.2 0.2 -0.2
v -0.2 0.3 0.5
v -0.2 0.3 0.4
v -0.2 0.4 0.5
v -0.2 0.4 0.4
v -0.1 0.1 0.4
v -0.1 0.1 0.1
v -0.1 0.1 -0.1
v -0.1 0.2 0.3
v -0.1 0.2 0.1
v -0.1 0.2 -0.1
v -0.1 0.2 -0.2
v -0.1 0.3 0.4
v -0.1 0.3 0.3
v -0.1 0.3 0.1
v -0.1 0.3 -0.2
v -0.1 0.4 0.1
v -0.1 0.4 -0.2
v -0.1 0.5 0.1
v -0.1 0.5 -0.2
v -0.1 0.6 0.1
v -0.1 0.6 -0.2
v -0.1 0.7 0.1
v -0.1 0.7 -0.2
v 0.3 0.1 -0.1
v 0.3 0.1 -0.2
v 0.3 0.2 -0.1
v 0.3 0.2 -0.2
v 0.3 0.3 0.5
v 0.3 0.3 0.4
v 0.3 0.4 0.5
v 0.3 0.4 0.4
v 0.4 0.1 0.4
v 0.4 0.1 0.1
v 0.4 0.1 -0.1
v 0.4 0.2 0.3
v 0.4 0.2 0.1
v 0.4 0.2 -0.1
v 0.4 0.2 -0.2
v 0.4 0.3 0.4
v 0.4 0.3 0.3
v 0.4 0.3 0.1
v 0.4 0.3 -0.2
v 0.4 0.4 0.1
v 0.4 0.4 -0.2
v 0.4 0.5 0.1
v 0.4 0.5 -0.2
v 0.4 0.6 0.1
v 0.4 0.6 -0.2
v 0.4 0.7 0.1
v 0.4 0.7 -0.2
v -0.3 0.3 0.5
v -0.3 0.4 0.5
v -0.2 0.3 0.5
v -0.2 0.4 0.5
v 0.2 0.3 0.5
v 0.2 0.4 0.5
v 0.3 0.3 0.5
v 0.3 0.4 0.5
v -0.4 0.1 0.4
v -0.4 0.3 0.4
v -0.3 0.1 0.4
v -0.3 0.3 0.4
v -0.2 0.1 0.4
v -0.2 0.3 0.4
v -0.1 0.1 0.4
v -0.1 0.3 0.4
v 0.1 0.1 0.4
v 0.1 0.3 0.4
v 0.2 0.1 0.4
v 0.2 0.3 0.4
v 0.3 0.1 0.4
v 0.3 0.3 0.4
v 0.4 0.1 0.4
v 0.4 0.3 0.4
v -0.4 0.2 0.1
v -0.4 0.3 0.1
v -0.4 0.4 0.1
v -0.4 0.5 0.1
v -0.4 0.6 0.1
v -0.4 0.7 0.1
v -0.3 0.2 0.1
v -0.2 0.2 0.1
v -0.1 0.2 0.1
v -0.1 0.3 0.1
v -0.1 0.4 0.1
v -0.1 0.5 0.1
v -0.1 0.6 0.1
v -0.1 0.7 0.1
v 0.1 0.2 0.1
v 0.1 0.3 0.1
v 0.1 0.4 0.1
v 0.1 0.5 0.1
v 0.1 0.6 0.1
v 0.1 0.7 0.1
v 0.2 0.2 0.1
v 0.3 0.2 0.1
v 0.4 0.2 0.1
v 0.4 0.3 0.1
v 0.4 0.4 0.1
v 0.4 0.5 0.1
v 0.4 0.6 0.1
v 0.4 0.7 0.1
v -0.3 0.3 0.4
v -0.3 0.4 0.4
v -0.2 0.3 0.4
v -0.2 0.4 0.4
v 0.2 0.3 0.4
v 0.2 0.4 0.4
v 0.3 0.3 0.4
v 0.3 0.4 0.4
v -0.4 0.2 0.3
v -0.4 0.3 0.3
v -0.3 0.2 0.3
v -0.3 0.3 0.3
v -0.2 0.2 0.3
v -0.2 0.3 0.3
v -0.1 0.2 0.3
v -0.1 0.3 0.3
v 0.1 0.2 0.3
v 0.1 0.3 0.3
v 0.2 0.2 0.3
v 0.2 0.3 0.3
v 0.3 0.2 0.3
v 0.3 0.3 0.3
v 0.4 0.2 0.3
v 0.4 0.3 0.3
v -0.4 0.1 -0.1
v -0.4 0.2 -0.1
v -0.3 0.1 -0.1
v -0.3 0.2 -0.1
v -0.2 0.1 -0.1
v -0.2 0.2 -0.1
v -0.1 0.1 -0.1
v -0.1 0.2 -0.1
v 0.1 0.1 -0.1
v 0.1 0.2 -0.1
v 0.2 0.1 -0.1
v 0.2 0.2 -0.1
v 0.3 0.1 -0.1
v 0.3 0.2 -0.1
v 0.4 0.1 -0.1
v 0.4 0.2 -0.1
v -0.4 0.2 -0.2
v -0.4 0.3 -0.2
v -0.4 0.4 -0.2
v -0.4 0.5 -0.2
v -0.4 0.6 -0.2
v -0.4 0.7 -0.2
v -0.3 0.1 -0.2
v -0.3 0.2 -0.2
v -0.2 0.1 -0.2
v -0.2 0.2 -0.2
v -0.1 0.2 -0.2
v -0.1 0.3 -0.2
v -0.1 0.4 -0.2
v -0.1 0.5 -0.2
v -0.1 0.6 -0.2
v -0.1 0.7 -0.2
v 0.1 0.2 -0.2
v 0.1 0.3 -0.2
v 0.1 0.4 -0.2
v 0.1 0.5 -0.2
v 0.1 0.6 -0.2
v 0.1 0.7 -0.2
v 0.2 0.1 -0.2
v 0.2 0.2 -0.2
v 0.3 0.1 -0.2
v 0.3 0.2 -0.2
v 0.4 0.2 -0.2
v 0.4 0.3 -0.2
v 0.4 0.4 -0.2
v 0.4 0.5 -0.2
v 0.4 0.6 -0.2
v 0.4 0.7 -0.2
v -0.4 0.1 0.4
v -0.3 0.1 0.4
v -0.2 0.1 0.4
v -0.1 0.1 0.4
v 0.1 0.1 0.4
v 0.2 0.1 0.4
v 0.3 0.1 0.4
v 0.4 0.1 0.4
v -0.4 0.1 0.1
v -0.3 0.1 0.1
v -0.2 0.1 0.1
v -0.1 0.1 0.1
v 0.1 0.1 0.1
v 0.2 0.1 0.1
v 0.3 0.1 0.1
v 0.4 0.1 0.1
v -0.4 0.1 -0.1
v -0.3 0.1 -0.1
v -0.2 0.1 -0.1
v -0.1 0.1 -0.1
v 0.1 0.1 -0.1
v 0.2 0.1 -0.1
v 0.3 0.1 -0.1
v 0.4 0.1 -0.1
v -0.3 0.1 -0.2
v -0.2 0.1 -0.2
v 0.2 0.1 -0.2
v 0.3 0.1 -0.2
v -0.4 0.2 -0.1
v -0.3 0.2 -0.1
v -0.2 0.2 -0.1
v -0.1 0.2 -0.1
v 0.1 0.2 -0.1
v 0.2 0.2 -0.1
v 0.3 0.2 -0.1
v 0.4 0.2 -0.1
v -0.4 0.2 -0.2
v -0.3 0.2 -0.2
v -0.2 0.2 -0.2
v -0.1 0.2 -0.2
v 0.1 0.2 -0.2
v 0.2 0.2 -0.2
v 0.3 0.2 -0.2
v 0.4 0.2 -0.2
v -0.3 0.3 0.5
v -0.2 0.3 0.5
v 0.2 0.3 0.5
v 0.3 0.3 0.5
v -0.3 0.3 0.4
v -0.2 0.3 0.4
v 0.2 0.3 0.4
v 0.3 0.3 0.4
v -0.4 0.2 0.3
v -0.3 0.2 0.3
v -0.2 0.2 0.3
v -0.1 0.2 0.3
v 0.1 0.2 0.3
v 0.2 0.2 0.3
v 0.3 0.2 0.3
v 0.4 0.2 0.3
v -0.4 0.2 0.1
v -0.3 0.2 0.1
v -0.2 0.2 0.1
v -0.1 0.2 0.1
v 0.1 0.2 0.1
v 0.2 0.2 0.1
v 0.3 0.2 0.1
v 0.4 0.2 0.1
v -0.4 0.3 0.4
v -0.3 0.3 0.4
v -0.2 0.3 0.4
v -0.1 0.3 0.4
v 0.1 0.3 0.4
v 0.2 0.3 0.4
v 0.3 0.3 0.4
v 0.4 0.3 0.4
v -0.4 0.3 0.3
v -0.3 0.3 0.3
v -0.2 0.3 0.3
v -0.1 0.3 0.3
v 0.1 0.3 0.3
v 0.2 0.3 0.3
v 0.3 0.3 0.3
v 0.4 0.3 0.3
v -0.3 0.4 0.5
v -0.2 0.4 0.5
v 0.2 0.4 0.5
v 0.3 0.4 0.5
v -0.3 0.4 0.4
v -0.2 0.4 0.4
v 0.2 0.4 0.4
v 0.3 0.4 0.4
v -0.4 0.7 0.1
v -0.1 0.7 0.1
v 0.1 0.7 0.1
v 0.4 0.7 0.1
v -0.3 0.7 0
v -0.2 0.7 0
v 0.2 0.7 0
v 0.3 0.7 0
v -0.3 0.7 -0.1
v -0.2 0.7 -0.1
v 0.2 0.7 -0.1
v 0.3 0.7 -0.1
v -0.4 0.7 -0.2
v -0.1 0.7 -0.2
v 0.1 0.7 -0.2
v 0.4 0.7 -0.2

# faces
f 4/4/1 2/4/1 1/4/1
f 5/5/1 3/5/1 2/5/1
f 5/4/1 2/4/1 4/4/1
f 6/5/1 3/5/1 5/5/1
f 8/4/1 4/4/1 1/4/1
f 9/4/1 4/4/1 8/4/1
f 10/4/1 7/4/1 6/4/1
f 10/4/1 6/4/1 5/4/1
f 11/4/1 7/4/1 10/4/1
f 12/2/1 11/2/1 10/2/1
f 13/2/1 11/2/1 12/2/1
f 14/3/1 13/3/1 12/3/1
f 15/3/1 13/3/1 14/3/1
f 16/2/1 15/2/1 14/2/1
f 17/2/1 15/2/1 16/2/1
f 18/3/1 17/3/1 16/3/1
f 19/3/1 17/3/1 18/3/1
f 22/5/1 21/5/1 20/5/1
f 23/5/1 21/5/1 22/5/1
f 26/4/1 25/4/1 24/4/1
f 27/4/1 25/4/1 26/4/1
f 31/4/1 29/4/1 28/4/1
f 32/5/1 30/5/1 29/5/1
f 32/4/1 29/4/1 31/4/1
f 33/5/1 30/5/1 32/5/1
f 35/4/1 31/4/1 28/4/1
f 36/4/1 31/4/1 35/4/1
f 37/4/1 34/4/1 33/4/1
f 37/4/1 33/4/1 32/4/1
f 38/4/1 34/4/1 37/4/1
f 39/2/1 38/2/1 37/2/1
f 40/2/1 38/2/1 39/2/1
f 41/3/1 40/3/1 39/3/1
f 42/3/1 40/3/1 41/3/1
f 43/2/1 42/2/1 41/2/1
f 44/2/1 42/2/1 43/2/1
f 45/3/1 44/3/1 43/3/1
f 46/3/1 44/3/1 45/3/1
f 49/5/1 48/5/1 47/5/1
f 50/5/1 48/5/1 49/5/1
f 53/4/1 52/4/1 51/4/1
f 54/4/1 52/4/1 53/4/1
f 55/5/2 56/5/2 57/5/2
f 57/5/2 56/5/2 58/5/2
f 59/4/2 60/4/2 61/4/2
f 61/4/2 60/4/2 62/4/2
f 63/4/2 64/4/2 66/4/2
f 64/5/2 65/5/2 67/5/2
f 66/4/2 64/4/2 67/4/2
f 67/5/2 65/5/2 68/5/2
f 63/4/2 66/4/2 70/4/2
f 70/4/2 66/4/2 71/4/2
f 68/4/2 69/4/2 72/4/2
f 67/4/2 68/4/2 72/4/2
f 72/4/2 69/4/2 73/4/2
f 72/2/2 73/2/2 74/2/2
f 74/2/2 73/2/2 75/2/2
f 74/3/2 75/3/2 76/3/2
f 76/3/2 75/3/2 77/3/2
f 76/2/2 77/2/2 78/2/2
f 78/2/2 77/2/2 79/2/2
f 78/3/2 79/3/2 80/3/2
f 80/3/2 79/3/2 81/3/2
f 82/5/2 83/5/2 84/5/2
f 84/5/2 83/5/2 85/5/2
f 86/4/2 87/4/2 88/4/2
f 88/4/2 87/4/2 89/4/2
f 90/4/2 91/4/2 93/4/2
f 91/5/2 92/5/2 94/5/2
f 93/4/2 91/4/2 94/4/2
f 94/5/2 92/5/2 95/5/2
f 90/4/2 93/4/2 97/4/2
f 97/4/2 93/4/2 98/4/2
f 95/4/2 96/4/2 99/4/2
f 94/4/2 95/4/2 99/4/2
f 99/4/2 96/4/2 100/4/2
f 99/2/2 100/2/2 101/2/2
f 101/2/2 100/2/2 102/2/2
f 101/3/2 102/3/2 103/3/2
f 103/3/2 102/3/2 104/3/2
f 103/2/2 104/2/2 105/2/2
f 105/2/2 104/2/2 106/2/2
f 105/3/2 106/3/2 107/3/2
f 107/3/2 106/3/2 108/3/2
f 111/4/3 110/4/3 109/4/3
f 112/4/3 110/4/3 111/4/3
f 115/4/3 114/4/3 113/4/3
f 116/4/3 114/4/3 115/4/3
f 119/4/3 118/4/3 117/4/3
f 120/4/3 118/4/3 119/4/3
f 121/5/3 120/5/3 119/5/3
f 122/5/3 120/5/3 121/5/3
f 123/4/3 122/4/3 121/4/3
f 124/4/3 122/4/3 123/4/3
f 127/4/3 126/4/3 125/4/3
f 128/4/3 126/4/3 127/4/3
f 129/5/3 128/5/3 127/5/3
f 130/5/3 128/5/3 129/5/3
f 131/4/3 130/4/3 129/4/3
f 132/4/3 130/4/3 131/4/3
f 139/4/3 134/4/3 133/4/3
f 140/4/3 134/4/3 139/4/3
f 141/4/3 134/4/3 140/4/3
f 142/2/3 135/2/3 134/2/3
f 142/4/3 134/4/3 141/4/3
f 143/3/3 136/3/3 135/3/3
f 143/2/3 135/2/3 142/2/3
f 144/2/3 137/2/3 136/2/3
f 144/3/3 136/3/3 143/3/3
f 145/3/3 138/3/3 137/3/3
f 145/2/3 137/2/3 144/2/3
f 146/3/3 138/3/3 145/3/3
f 153/4/3 148/4/3 147/4/3
f 154/4/3 148/4/3 153/4/3
f 155/4/3 148/4/3 154/4/3
f 156/2/3 149/2/3 148/2/3
f 156/4/3 148/4/3 155/4/3
f 157/3/3 150/3/3 149/3/3
f 157/2/3 149/2/3 156/2/3
f 158/2/3 151/2/3 150/2/3
f 158/3/3 150/3/3 157/3/3
f 159/3/3 152/3/3 151/3/3
f 159/2/3 151/2/3 158/2/3
f 160/3/3 152/3/3 159/3/3
f 161/4/4 162/4/4 163/4/4
f 163/4/4 162/4/4 164/4/4
f 165/4/4 166/4/4 167/4/4
f 167/4/4 166/4/4 168/4/4
f 169/4/4 170/4/4 171/4/4
f 171/4/4 170/4/4 172/4/4
f 171/5/4 172/5/4 173/5/4
f 173/5/4 172/5/4 174/5/4
f 173/4/4 174/4/4 175/4/4
f 175/4/4 174/4/4 176/4/4
f 177/4/4 178/4/4 179/4/4
f 179/4/4 178/4/4 180/4/4
f 179/5/4 180/5/4 181/5/4
f 181/5/4 180/5/4 182/5/4
f 181/4/4 182/4/4 183/4/4
f 183/4/4 182/4/4 184/4/4
f 185/5/4 186/5/4 187/5/4
f 187/5/4 186/5/4 188/5/4
f 189/5/4 190/5/4 191/5/4
f 191/5/4 190/5/4 192/5/4
f 193/5/4 194/5/4 195/5/4
f 195/5/4 194/5/4 196/5/4
f 197/5/4 198/5/4 199/5/4
f 199/5/4 198/5/4 200/5/4
f 201/4/4 202/4/4 208/4/4
f 207/5/4 208/5/4 209/5/4
f 208/4/4 202/4/4 210/4/4
f 209/5/4 208/5/4 210/5/4
f 210/4/4 202/4/4 211/4/4
f 202/2/4 203/2/4 212/2/4
f 211/4/4 202/4/4 212/4/4
f 203/3/4 204/3/4 213/3/4
f 212/2/4 203/2/4 213/2/4
f 204/2/4 205/2/4 214/2/4
f 213/3/4 204/3/4 214/3/4
f 205/3/4 206/3/4 215/3/4
f 214/2/4 205/2/4 215/2/4
f 215/3/4 206/3/4 216/3/4
f 217/4/4 218/4/4 224/4/4
f 223/5/4 224/5/4 225/5/4
f 224/4/4 218/4/4 226/4/4
f 225/5/4 224/5/4 226/5/4
f 226/4/4 218/4/4 227/4/4
f 218/2/4 219/2/4 228/2/4
f 227/4/4 218/4/4 228/4/4
f 219/3/4 220/3/4 229/3/4
f 228/2/4 219/2/4 229/2/4
f 220/2/4 221/2/4 230/2/4
f 229/3/4 220/3/4 230/3/4
f 221/3/4 222/3/4 231/3/4
f 230/2/4 221/2/4 231/2/4
f 231/3/4 222/3/4 232/3/4
f 241/4/5 234/4/5 233/4/5
f 242/5/5 235/5/5 234/5/5
f 242/4/5 234/4/5 241/4/5
f 243/4/5 236/4/5 235/4/5
f 243/5/5 235/5/5 242/5/5
f 244/4/5 236/4/5 243/4/5
f 245/4/5 238/4/5 237/4/5
f 246/5/5 239/5/5 238/5/5
f 246/4/5 238/4/5 245/4/5
f 247/4/5 240/4/5 239/4/5
f 247/5/5 239/5/5 246/5/5
f 248/4/5 240/4/5 247/4/5
f 249/5/5 242/5/5 241/5/5
f 250/6/5 243/6/5 242/6/5
f 250/5/5 242/5/5 249/5/5
f 251/5/5 244/5/5 243/5/5
f 251/6/5 243/6/5 250/6/5
f 252/5/5 244/5/5 251/5/5
f 253/5/5 246/5/5 245/5/5
f 254/6/5 247/6/5 246/6/5
f 254/5/5 246/5/5 253/5/5
f 255/5/5 248/5/5 247/5/5
f 255/6/5 247/6/5 254/6/5
f 256/5/5 248/5/5 255/5/5
f 257/5/5 251/5/5 250/5/5
f 258/5/5 251/5/5 257/5/5
f 259/5/5 255/5/5 254/5/5
f 260/5/5 255/5/5 259/5/5
f 269/4/5 262/4/5 261/4/5
f 270/4/5 262/4/5 269/4/5
f 271/4/5 264/4/5 263/4/5
f 272/4/5 264/4/5 271/4/5
f 273/4/5 266/4/5 265/4/5
f 274/4/5 266/4/5 273/4/5
f 275/4/5 268/4/5 267/4/5
f 276/4/5 268/4/5 275/4/5
f 281/4/5 278/4/5 277/4/5
f 282/4/5 278/4/5 281/4/5
f 283/4/5 280/4/5 279/4/5
f 284/4/5 280/4/5 283/4/5
f 285/4/6 286/4/6 293/4/6
f 286/5/6 287/5/6 294/5/6
f 293/4/6 286/4/6 294/4/6
f 287/4/6 288/4/6 295/4/6
f 294/5/6 287/5/6 295/5/6
f 295/4/6 288/4/6 296/4/6
f 289/4/6 290/4/6 297/4/6
f 290/5/6 291/5/6 298/5/6
f 297/4/6 290/4/6 298/4/6
f 291/4/6 292/4/6 299/4/6
f 298/5/6 291/5/6 299/5/6
f 299/4/6 292/4/6 300/4/6
f 301/4/6 302/4/6 309/4/6
f 302/5/6 303/5/6 310/5/6
f 309/4/6 302/4/6 310/4/6
f 303/4/6 304/4/6 311/4/6
f 310/5/6 303/5/6 311/5/6
f 311/4/6 304/4/6 312/4/6
f 305/4/6 306/4/6 313/4/6
f 306/5/6 307/5/6 314/5/6
f 313/4/6 306/4/6 314/4/6
f 307/4/6 308/4/6 315/4/6
f 314/5/6 307/5/6 315/5/6
f 315/4/6 308/4/6 316/4/6
f 317/4/6 318/4/6 321/4/6
f 321/4/6 318/4/6 322/4/6
f 319/4/6 320/4/6 323/4/6
f 323/4/6 320/4/6 324/4/6
f 325/3/6 326/3/6 329/3/6
f 329/3/6 326/3/6 330/3/6
f 327/3/6 328/3/6 331/3/6
f 331/3/6 328/3/6 332/3/6
f 325/3/6 329/3/6 333/3/6
f 329/1/6 330/1/6 333/1/6
f 330/3/6 326/3/6 334/3/6
f 333/1/6 330/1/6 334/1/6
f 331/1/6 332/1/6 335/1/6
f 327/3/6 331/3/6 335/3/6
f 332/3/6 328/3/6 336/3/6
f 335/1/6 332/1/6 336/1/6
f 325/3/6 333/3/6 337/3/6
f 333/3/6 334/3/6 337/3/6
f 334/3/6 326/3/6 338/3/6
f 337/3/6 334/3/6 338/3/6
f 327/3/6 335/3/6 339/3/6
f 335/3/6 336/3/6 339/3/6
f 336/3/6 328/3/6 340/3/6
f 339/3/6 336/3/6 340/3/6
