# MagicaVoxel @ Ephtracy

# group
o lower

# material
mtllib walk0-0-lower.mtl
usemtl palette

# normals
vn -1 0 0
vn 1 0 0
vn 0 0 1
vn 0 0 -1
vn 0 -1 0
vn 0 1 0

# texcoords
vt 0.00195313 0.5
vt 0.0722656 0.5
vt 0.0917969 0.5
vt 0.158203 0.5
vt 0.162109 0.5
vt 0.166016 0.5

# verts
v -0.4 0 0.4
v -0.4 0 0.2
v -0.4 0.1 0.5
v -0.4 0.1 0.4
v -0.4 0.1 0.2
v -0.4 0.1 0.1
v -0.4 0.2 0.4
v -0.4 0.2 0.3
v -0.4 0.2 0.2
v -0.4 0.2 0.1
v -0.4 0.2 0
v -0.4 0.3 0.6
v -0.4 0.3 0.5
v -0.4 0.3 0.4
v -0.4 0.3 0.3
v -0.4 0.3 0.2
v -0.4 0.3 0.1
v -0.4 0.3 0
v -0.4 0.3 -0.1
v -0.4 0.4 0.6
v -0.4 0.4 0.5
v -0.4 0.4 0.3
v -0.4 0.4 0.2
v -0.4 0.4 0.1
v -0.4 0.4 0
v -0.4 0.4 -0.1
v -0.4 0.4 -0.2
v -0.4 0.5 0.2
v -0.4 0.5 0.1
v -0.4 0.5 0
v -0.4 0.5 -0.1
v -0.4 0.6 0.2
v -0.4 0.6 0
v -0.4 0.6 -0.2
v -0.3 0 0.2
v -0.3 0 0.1
v -0.3 0.1 0.2
v -0.3 0.1 0.1
v -0.3 0.4 0.6
v -0.3 0.4 0.5
v -0.3 0.5 0.6
v -0.3 0.5 0.5
v 0.1 0 0.1
v 0.1 0 -0.3
v 0.1 0.1 0
v 0.1 0.1 -0.2
v 0.1 0.1 -0.3
v 0.1 0.1 -0.4
v 0.1 0.2 0.1
v 0.1 0.2 0
v 0.1 0.2 -0.1
v 0.1 0.2 -0.2
v 0.1 0.2 -0.3
v 0.1 0.2 -0.4
v 0.1 0.2 -0.5
v 0.1 0.3 0
v 0.1 0.3 -0.1
v 0.1 0.3 -0.3
v 0.1 0.3 -0.4
v 0.1 0.3 -0.5
v 0.1 0.4 0.1
v 0.1 0.4 0
v 0.1 0.4 -0.2
v 0.1 0.4 -0.3
v 0.1 0.4 -0.4
v 0.1 0.5 0.1
v 0.1 0.5 -0.1
v 0.1 0.5 -0.2
v 0.1 0.5 -0.3
v 0.1 0.6 0.1
v 0.1 0.6 -0.1
v 0.1 0.6 -0.3
v 0.2 0.1 0.2
v 0.2 0.1 0.1
v 0.2 0.2 0.1
v 0.2 0.3 0.2
v 0.2 0.3 0.1
v -0.2 0 0.2
v -0.2 0 0.1
v -0.2 0.1 0.2
v -0.2 0.1 0.1
v -0.2 0.4 0.6
v -0.2 0.4 0.5
v -0.2 0.5 0.6
v -0.2 0.5 0.5
v -0.1 0 0.4
v -0.1 0 0.2
v -0.1 0.1 0.5
v -0.1 0.1 0.4
v -0.1 0.1 0.2
v -0.1 0.1 0.1
v -0.1 0.2 0.4
v -0.1 0.2 0.3
v -0.1 0.2 0.2
v -0.1 0.2 0.1
v -0.1 0.2 0
v -0.1 0.3 0.6
v -0.1 0.3 0.5
v -0.1 0.3 0.4
v -0.1 0.3 0.3
v -0.1 0.3 0.2
v -0.1 0.3 0.1
v -0.1 0.3 0
v -0.1 0.3 -0.1
v -0.1 0.4 0.6
v -0.1 0.4 0.5
v -0.1 0.4 0.3
v -0.1 0.4 0.2
v -0.1 0.4 0.1
v -0.1 0.4 0
v -0.1 0.4 -0.1
v -0.1 0.4 -0.2
v -0.1 0.5 0.2
v -0.1 0.5 0.1
v -0.1 0.5 -0.1
v -0.1 0.6 0.2
v -0.1 0.6 0.1
v -0.1 0.6 -0.2
v 0.3 0.1 0.2
v 0.3 0.1 0.1
v 0.3 0.2 0.1
v 0.3 0.3 0.2
v 0.3 0.3 0.1
v 0.4 0 0.1
v 0.4 0 -0.3
v 0.4 0.1 0
v 0.4 0.1 -0.2
v 0.4 0.1 -0.3
v 0.4 0.1 -0.4
v 0.4 0.2 0.1
v 0.4 0.2 0
v 0.4 0.2 -0.1
v 0.4 0.2 -0.2
v 0.4 0.2 -0.3
v 0.4 0.2 -0.4
v 0.4 0.2 -0.5
v 0.4 0.3 0
v 0.4 0.3 -0.1
v 0.4 0.3 -0.3
v 0.4 0.3 -0.4
v 0.4 0.3 -0.5
v 0.4 0.4 0.1
v 0.4 0.4 0
v 0.4 0.4 -0.2
v 0.4 0.4 -0.3
v 0.4 0.4 -0.4
v 0.4 0.5 0.1
v 0.4 0.5 -0.1
v 0.4 0.5 -0.2
v 0.4 0.5 -0.3
v 0.4 0.6 0.1
v 0.4 0.6 -0.1
v 0.4 0.6 -0.3
v -0.4 0.3 0.6
v -0.4 0.4 0.6
v -0.3 0.3 0.6
v -0.3 0.4 0.6
v -0.3 0.5 0.6
v -0.2 0.3 0.6
v -0.2 0.4 0.6
v -0.2 0.5 0.6
v -0.1 0.3 0.6
v -0.1 0.4 0.6
v -0.4 0.1 0.5
v -0.4 0.3 0.5
v -0.3 0.1 0.5
v -0.3 0.3 0.5
v -0.2 0.1 0.5
v -0.2 0.3 0.5
v -0.1 0.1 0.5
v -0.1 0.3 0.5
v -0.4 0 0.4
v -0.4 0.1 0.4
v -0.3 0 0.4
v -0.3 0.1 0.4
v -0.2 0 0.4
v -0.2 0.1 0.4
v -0.1 0 0.4
v -0.1 0.1 0.4
v -0.4 0.2 0.3
v -0.4 0.3 0.3
v -0.4 0.4 0.3
v -0.3 0.2 0.3
v -0.2 0.2 0.3
v -0.1 0.2 0.3
v -0.1 0.3 0.3
v -0.1 0.4 0.3
v -0.4 0.4 0.2
v -0.4 0.5 0.2
v -0.4 0.6 0.2
v -0.3 0.5 0.2
v -0.3 0.6 0.2
v -0.1 0.4 0.2
v -0.1 0.5 0.2
v -0.1 0.6 0.2
v 0.2 0.1 0.2
v 0.2 0.3 0.2
v 0.3 0.1 0.2
v 0.3 0.3 0.2
v 0.1 0 0.1
v 0.1 0.2 0.1
v 0.1 0.4 0.1
v 0.1 0.5 0.1
v 0.1 0.6 0.1
v 0.2 0 0.1
v 0.2 0.1 0.1
v 0.2 0.2 0.1
v 0.3 0 0.1
v 0.3 0.1 0.1
v 0.3 0.2 0.1
v 0.4 0 0.1
v 0.4 0.2 0.1
v 0.4 0.4 0.1
v 0.4 0.5 0.1
v 0.4 0.6 0.1
v 0.1 0.3 0
v 0.1 0.4 0
v 0.4 0.3 0
v 0.4 0.4 0
v 0.1 0.2 -0.1
v 0.1 0.3 -0.1
v 0.4 0.2 -0.1
v 0.4 0.3 -0.1
v 0.1 0.1 -0.2
v 0.1 0.2 -0.2
v 0.2 0.1 -0.2
v 0.2 0.2 -0.2
v 0.3 0.1 -0.2
v 0.3 0.2 -0.2
v 0.4 0.1 -0.2
v 0.4 0.2 -0.2
v -0.4 0.3 0.5
v -0.4 0.4 0.5
v -0.3 0.3 0.5
v -0.3 0.4 0.5
v -0.3 0.5 0.5
v -0.2 0.3 0.5
v -0.2 0.4 0.5
v -0.2 0.5 0.5
v -0.1 0.3 0.5
v -0.1 0.4 0.5
v -0.4 0.2 0.4
v -0.4 0.3 0.4
v -0.3 0.2 0.4
v -0.3 0.3 0.4
v -0.2 0.2 0.4
v -0.2 0.3 0.4
v -0.1 0.2 0.4
v -0.1 0.3 0.4
v -0.4 0 0.2
v -0.4 0.1 0.2
v -0.3 0 0.2
v -0.3 0.1 0.2
v -0.2 0 0.2
v -0.2 0.1 0.2
v -0.1 0 0.2
v -0.1 0.1 0.2
v -0.4 0.1 0.1
v -0.4 0.2 0.1
v -0.3 0 0.1
v -0.3 0.1 0.1
v -0.2 0 0.1
v -0.2 0.1 0.1
v -0.1 0.1 0.1
v -0.1 0.2 0.1
v 0.2 0.2 0.1
v 0.2 0.3 0.1
v 0.3 0.2 0.1
v 0.3 0.3 0.1
v -0.4 0.2 0
v -0.4 0.3 0
v -0.1 0.2 0
v -0.1 0.3 0
v 0.1 0.1 0
v 0.1 0.2 0
v 0.2 0.1 0
v 0.2 0.2 0
v 0.3 0.1 0
v 0.3 0.2 0
v 0.4 0.1 0
v 0.4 0.2 0
v -0.4 0.3 -0.1
v -0.4 0.4 -0.1
v -0.1 0.3 -0.1
v -0.1 0.4 -0.1
v -0.4 0.4 -0.2
v -0.4 0.6 -0.2
v -0.1 0.4 -0.2
v -0.1 0.6 -0.2
v 0.1 0 -0.3
v 0.1 0.1 -0.3
v 0.1 0.4 -0.3
v 0.1 0.5 -0.3
v 0.1 0.6 -0.3
v 0.2 0 -0.3
v 0.2 0.1 -0.3
v 0.3 0 -0.3
v 0.3 0.1 -0.3
v 0.3 0.5 -0.3
v 0.3 0.6 -0.3
v 0.4 0 -0.3
v 0.4 0.1 -0.3
v 0.4 0.4 -0.3
v 0.4 0.5 -0.3
v 0.4 0.6 -0.3
v 0.1 0.1 -0.4
v 0.1 0.2 -0.4
v 0.1 0.3 -0.4
v 0.1 0.4 -0.4
v 0.2 0.1 -0.4
v 0.2 0.2 -0.4
v 0.3 0.1 -0.4
v 0.3 0.2 -0.4
v 0.4 0.1 -0.4
v 0.4 0.2 -0.4
v 0.4 0.3 -0.4
v 0.4 0.4 -0.4
v 0.1 0.2 -0.5
v 0.1 0.3 -0.5
v 0.4 0.2 -0.5
v 0.4 0.3 -0.5
v -0.4 0 0.4
v -0.3 0 0.4
v -0.2 0 0.4
v -0.1 0 0.4
v -0.4 0 0.2
v -0.3 0 0.2
v -0.2 0 0.2
v -0.1 0 0.2
v -0.3 0 0.1
v -0.2 0 0.1
v 0.1 0 0.1
v 0.2 0 0.1
v 0.3 0 0.1
v 0.4 0 0.1
v 0.2 0 -0.1
v 0.3 0 -0.1
v 0.1 0 -0.3
v 0.2 0 -0.3
v 0.3 0 -0.3
v 0.4 0 -0.3
v -0.4 0.1 0.5
v -0.3 0.1 0.5
v -0.2 0.1 0.5
v -0.1 0.1 0.5
v -0.4 0.1 0.4
v -0.3 0.1 0.4
v -0.2 0.1 0.4
v -0.1 0.1 0.4
v -0.4 0.1 0.2
v -0.3 0.1 0.2
v -0.2 0.1 0.2
v -0.1 0.1 0.2
v 0.2 0.1 0.2
v 0.3 0.1 0.2
v -0.4 0.1 0.1
v -0.3 0.1 0.1
v -0.2 0.1 0.1
v -0.1 0.1 0.1
v 0.2 0.1 0.1
v 0.3 0.1 0.1
v 0.1 0.1 -0.3
v 0.2 0.1 -0.3
v 0.3 0.1 -0.3
v 0.4 0.1 -0.3
v 0.1 0.1 -0.4
v 0.2 0.1 -0.4
v 0.3 0.1 -0.4
v 0.4 0.1 -0.4
v -0.4 0.2 0.1
v -0.1 0.2 0.1
v -0.4 0.2 0
v -0.1 0.2 0
v 0.1 0.2 -0.1
v 0.4 0.2 -0.1
v 0.1 0.2 -0.2
v 0.2 0.2 -0.2
v 0.3 0.2 -0.2
v 0.4 0.2 -0.2
v 0.1 0.2 -0.4
v 0.2 0.2 -0.4
v 0.3 0.2 -0.4
v 0.4 0.2 -0.4
v 0.1 0.2 -0.5
v 0.4 0.2 -0.5
v -0.4 0.3 0.6
v -0.3 0.3 0.6
v -0.2 0.3 0.6
v -0.1 0.3 0.6
v -0.4 0.3 0.5
v -0.3 0.3 0.5
v -0.2 0.3 0.5
v -0.1 0.3 0.5
v -0.4 0.3 0
v -0.1 0.3 0
v 0.1 0.3 0
v 0.4 0.3 0
v -0.4 0.3 -0.1
v -0.1 0.3 -0.1
v 0.1 0.3 -0.1
v 0.4 0.3 -0.1
v 0.1 0.4 0.1
v 0.4 0.4 0.1
v 0.1 0.4 0
v 0.4 0.4 0
v -0.4 0.4 -0.1
v -0.1 0.4 -0.1
v -0.4 0.4 -0.2
v -0.1 0.4 -0.2
v 0.1 0.1 0
v 0.2 0.1 0
v 0.3 0.1 0
v 0.4 0.1 0
v 0.2 0.1 -0.1
v 0.3 0.1 -0.1
v 0.1 0.1 -0.2
v 0.2 0.1 -0.2
v 0.3 0.1 -0.2
v 0.4 0.1 -0.2
v -0.4 0.2 0.4
v -0.3 0.2 0.4
v -0.2 0.2 0.4
v -0.1 0.2 0.4
v -0.4 0.2 0.3
v -0.3 0.2 0.3
v -0.2 0.2 0.3
v -0.1 0.2 0.3
v 0.1 0.2 0.1
v 0.2 0.2 0.1
v 0.3 0.2 0.1
v 0.4 0.2 0.1
v 0.1 0.2 0
v 0.2 0.2 0
v 0.3 0.2 0
v 0.4 0.2 0
v -0.4 0.3 0.5
v -0.3 0.3 0.5
v -0.2 0.3 0.5
v -0.1 0.3 0.5
v -0.4 0.3 0.4
v -0.3 0.3 0.4
v -0.2 0.3 0.4
v -0.1 0.3 0.4
v 0.2 0.3 0.2
v 0.3 0.3 0.2
v 0.2 0.3 0.1
v 0.3 0.3 0.1
v 0.1 0.3 -0.4
v 0.4 0.3 -0.4
v 0.1 0.3 -0.5
v 0.4 0.3 -0.5
v -0.4 0.4 0.6
v -0.3 0.4 0.6
v -0.2 0.4 0.6
v -0.1 0.4 0.6
v -0.4 0.4 0.5
v -0.3 0.4 0.5
v -0.2 0.4 0.5
v -0.1 0.4 0.5
v -0.4 0.4 0.3
v -0.1 0.4 0.3
v -0.4 0.4 0.2
v -0.1 0.4 0.2
v 0.1 0.4 -0.3
v 0.4 0.4 -0.3
v 0.1 0.4 -0.4
v 0.4 0.4 -0.4
v -0.3 0.5 0.6
v -0.2 0.5 0.6
v -0.3 0.5 0.5
v -0.2 0.5 0.5
v -0.4 0.6 0.2
v -0.3 0.6 0.2
v -0.1 0.6 0.2
v -0.3 0.6 0.1
v -0.2 0.6 0.1
v -0.1 0.6 0.1
v 0.1 0.6 0.1
v 0.4 0.6 0.1
v -0.4 0.6 0
v -0.3 0.6 0
v 0.2 0.6 0
v 0.3 0.6 0
v -0.3 0.6 -0.1
v -0.2 0.6 -0.1
v 0.1 0.6 -0.1
v 0.2 0.6 -0.1
v 0.3 0.6 -0.1
v 0.4 0.6 -0.1
v -0.4 0.6 -0.2
v -0.1 0.6 -0.2
v 0.2 0.6 -0.2
v 0.3 0.6 -0.2
v 0.1 0.6 -0.3
v 0.3 0.6 -0.3
v 0.4 0.6 -0.3

# faces
f 4/4/1 2/4/1 1/4/1
f 5/4/1 2/4/1 4/4/1
f 7/4/1 4/4/1 3/4/1
f 7/4/1 6/4/1 5/4/1
f 7/4/1 5/4/1 4/4/1
f 8/4/1 6/4/1 7/4/1
f 9/4/1 6/4/1 8/4/1
f 10/4/1 6/4/1 9/4/1
f 13/4/1 7/4/1 3/4/1
f 14/4/1 7/4/1 13/4/1
f 15/4/1 9/4/1 8/4/1
f 16/2/1 10/2/1 9/2/1
f 16/4/1 9/4/1 15/4/1
f 17/3/1 11/3/1 10/3/1
f 17/2/1 10/2/1 16/2/1
f 18/3/1 11/3/1 17/3/1
f 20/4/1 13/4/1 12/4/1
f 21/4/1 13/4/1 20/4/1
f 22/2/1 16/2/1 15/2/1
f 23/3/1 18/3/1 17/3/1
f 23/2/1 16/2/1 22/2/1
f 23/3/1 17/3/1 16/3/1
f 24/3/1 18/3/1 23/3/1
f 25/2/1 19/2/1 18/2/1
f 25/3/1 18/3/1 24/3/1
f 26/2/1 19/2/1 25/2/1
f 28/3/1 24/3/1 23/3/1
f 29/2/1 26/2/1 25/2/1
f 29/3/1 24/3/1 28/3/1
f 29/2/1 25/2/1 24/2/1
f 30/2/1 26/2/1 29/2/1
f 31/3/1 27/3/1 26/3/1
f 31/2/1 26/2/1 30/2/1
f 32/1/1 30/1/1 29/1/1
f 32/1/1 29/1/1 28/1/1
f 33/3/1 31/3/1 30/3/1
f 33/1/1 30/1/1 32/1/1
f 34/3/1 27/3/1 31/3/1
f 34/3/1 31/3/1 33/3/1
f 37/5/1 36/5/1 35/5/1
f 38/5/1 36/5/1 37/5/1
f 41/4/1 40/4/1 39/4/1
f 42/4/1 40/4/1 41/4/1
f 45/4/1 44/4/1 43/4/1
f 46/4/1 44/4/1 45/4/1
f 47/4/1 44/4/1 46/4/1
f 49/4/1 45/4/1 43/4/1
f 50/4/1 45/4/1 49/4/1
f 52/4/1 48/4/1 47/4/1
f 52/4/1 47/4/1 46/4/1
f 53/4/1 48/4/1 52/4/1
f 54/4/1 48/4/1 53/4/1
f 57/2/1 52/2/1 51/2/1
f 57/2/1 53/2/1 52/2/1
f 58/4/1 55/4/1 54/4/1
f 58/4/1 54/4/1 53/4/1
f 58/2/1 53/2/1 57/2/1
f 59/4/1 55/4/1 58/4/1
f 60/4/1 55/4/1 59/4/1
f 62/3/1 57/3/1 56/3/1
f 62/3/1 58/3/1 57/3/1
f 63/3/1 58/3/1 62/3/1
f 64/2/1 59/2/1 58/2/1
f 64/3/1 58/3/1 63/3/1
f 65/2/1 59/2/1 64/2/1
f 66/2/1 63/2/1 62/2/1
f 66/2/1 62/2/1 61/2/1
f 67/2/1 63/2/1 66/2/1
f 68/3/1 64/3/1 63/3/1
f 68/2/1 63/2/1 67/2/1
f 69/3/1 64/3/1 68/3/1
f 70/3/1 67/3/1 66/3/1
f 71/2/1 68/2/1 67/2/1
f 71/3/1 67/3/1 70/3/1
f 71/2/1 69/2/1 68/2/1
f 72/2/1 69/2/1 71/2/1
f 75/4/1 74/4/1 73/4/1
f 76/4/1 75/4/1 73/4/1
f 77/4/1 75/4/1 76/4/1
f 78/5/2 79/5/2 80/5/2
f 80/5/2 79/5/2 81/5/2
f 82/4/2 83/4/2 84/4/2
f 84/4/2 83/4/2 85/4/2
f 86/4/2 87/4/2 89/4/2
f 89/4/2 87/4/2 90/4/2
f 88/4/2 89/4/2 92/4/2
f 90/4/2 91/4/2 92/4/2
f 89/4/2 90/4/2 92/4/2
f 92/4/2 91/4/2 93/4/2
f 93/4/2 91/4/2 94/4/2
f 94/4/2 91/4/2 95/4/2
f 88/4/2 92/4/2 98/4/2
f 98/4/2 92/4/2 99/4/2
f 93/4/2 94/4/2 100/4/2
f 94/2/2 95/2/2 101/2/2
f 100/4/2 94/4/2 101/4/2
f 95/3/2 96/3/2 102/3/2
f 101/2/2 95/2/2 102/2/2
f 102/3/2 96/3/2 103/3/2
f 97/4/2 98/4/2 105/4/2
f 105/4/2 98/4/2 106/4/2
f 100/2/2 101/2/2 107/2/2
f 102/3/2 103/3/2 108/3/2
f 107/2/2 101/2/2 108/2/2
f 101/3/2 102/3/2 108/3/2
f 108/3/2 103/3/2 109/3/2
f 103/2/2 104/2/2 110/2/2
f 109/3/2 103/3/2 110/3/2
f 110/2/2 104/2/2 111/2/2
f 108/3/2 109/3/2 113/3/2
f 110/2/2 111/2/2 114/2/2
f 113/3/2 109/3/2 114/3/2
f 109/2/2 110/2/2 114/2/2
f 111/3/2 112/3/2 115/3/2
f 114/2/2 111/2/2 115/2/2
f 113/2/2 114/2/2 116/2/2
f 114/3/2 115/3/2 117/3/2
f 116/2/2 114/2/2 117/2/2
f 115/3/2 112/3/2 118/3/2
f 117/3/2 115/3/2 118/3/2
f 119/4/2 120/4/2 121/4/2
f 119/4/2 121/4/2 122/4/2
f 122/4/2 121/4/2 123/4/2
f 124/4/2 125/4/2 126/4/2
f 126/4/2 125/4/2 127/4/2
f 127/4/2 125/4/2 128/4/2
f 124/4/2 126/4/2 130/4/2
f 130/4/2 126/4/2 131/4/2
f 128/4/2 129/4/2 133/4/2
f 127/4/2 128/4/2 133/4/2
f 133/4/2 129/4/2 134/4/2
f 134/4/2 129/4/2 135/4/2
f 132/2/2 133/2/2 138/2/2
f 133/2/2 134/2/2 138/2/2
f 135/4/2 136/4/2 139/4/2
f 134/4/2 135/4/2 139/4/2
f 138/2/2 134/2/2 139/2/2
f 139/4/2 136/4/2 140/4/2
f 140/4/2 136/4/2 141/4/2
f 137/3/2 138/3/2 143/3/2
f 138/3/2 139/3/2 143/3/2
f 143/3/2 139/3/2 144/3/2
f 139/2/2 140/2/2 145/2/2
f 144/3/2 139/3/2 145/3/2
f 145/2/2 140/2/2 146/2/2
f 143/2/2 144/2/2 147/2/2
f 142/2/2 143/2/2 147/2/2
f 147/2/2 144/2/2 148/2/2
f 144/3/2 145/3/2 149/3/2
f 148/2/2 144/2/2 149/2/2
f 149/3/2 145/3/2 150/3/2
f 147/3/2 148/3/2 151/3/2
f 148/1/2 149/1/2 152/1/2
f 151/3/2 148/3/2 152/3/2
f 149/1/2 150/1/2 152/1/2
f 152/1/2 150/1/2 153/1/2
f 156/4/3 155/4/3 154/4/3
f 157/4/3 155/4/3 156/4/3
f 159/5/3 157/5/3 156/5/3
f 160/4/3 158/4/3 157/4/3
f 160/5/3 157/5/3 159/5/3
f 161/4/3 158/4/3 160/4/3
f 162/4/3 160/4/3 159/4/3
f 163/4/3 160/4/3 162/4/3
f 166/4/3 165/4/3 164/4/3
f 167/4/3 165/4/3 166/4/3
f 168/5/3 167/5/3 166/5/3
f 169/5/3 167/5/3 168/5/3
f 170/4/3 169/4/3 168/4/3
f 171/4/3 169/4/3 170/4/3
f 174/4/3 173/4/3 172/4/3
f 175/4/3 173/4/3 174/4/3
f 176/6/3 175/6/3 174/6/3
f 177/6/3 175/6/3 176/6/3
f 178/4/3 177/4/3 176/4/3
f 179/4/3 177/4/3 178/4/3
f 183/4/3 181/4/3 180/4/3
f 184/4/3 181/4/3 183/4/3
f 185/4/3 181/4/3 184/4/3
f 186/2/3 182/2/3 181/2/3
f 186/4/3 181/4/3 185/4/3
f 187/2/3 182/2/3 186/2/3
f 191/3/3 189/3/3 188/3/3
f 191/1/3 190/1/3 189/1/3
f 192/1/3 190/1/3 191/1/3
f 193/3/3 191/3/3 188/3/3
f 194/2/3 192/2/3 191/2/3
f 194/3/3 191/3/3 193/3/3
f 195/2/3 192/2/3 194/2/3
f 198/4/3 197/4/3 196/4/3
f 199/4/3 197/4/3 198/4/3
f 205/4/3 201/4/3 200/4/3
f 206/4/3 201/4/3 205/4/3
f 207/4/3 201/4/3 206/4/3
f 208/5/3 206/5/3 205/5/3
f 209/5/3 206/5/3 208/5/3
f 211/4/3 209/4/3 208/4/3
f 211/4/3 210/4/3 209/4/3
f 212/4/3 210/4/3 211/4/3
f 213/2/3 203/2/3 202/2/3
f 214/3/3 204/3/3 203/3/3
f 214/2/3 203/2/3 213/2/3
f 215/3/3 204/3/3 214/3/3
f 218/3/3 217/3/3 216/3/3
f 219/3/3 217/3/3 218/3/3
f 222/2/3 221/2/3 220/2/3
f 223/2/3 221/2/3 222/2/3
f 226/4/3 225/4/3 224/4/3
f 227/4/3 225/4/3 226/4/3
f 228/5/3 227/5/3 226/5/3
f 229/5/3 227/5/3 228/5/3
f 230/4/3 229/4/3 228/4/3
f 231/4/3 229/4/3 230/4/3
f 232/4/4 233/4/4 234/4/4
f 234/4/4 233/4/4 235/4/4
f 234/5/4 235/5/4 237/5/4
f 235/4/4 236/4/4 238/4/4
f 237/5/4 235/5/4 238/5/4
f 238/4/4 236/4/4 239/4/4
f 237/4/4 238/4/4 240/4/4
f 240/4/4 238/4/4 241/4/4
f 242/4/4 243/4/4 244/4/4
f 244/4/4 243/4/4 245/4/4
f 244/5/4 245/5/4 246/5/4
f 246/5/4 245/5/4 247/5/4
f 246/4/4 247/4/4 248/4/4
f 248/4/4 247/4/4 249/4/4
f 250/4/4 251/4/4 252/4/4
f 252/4/4 251/4/4 253/4/4
f 254/4/4 255/4/4 256/4/4
f 256/4/4 255/4/4 257/4/4
f 258/4/4 259/4/4 261/4/4
f 260/5/4 261/5/4 262/5/4
f 261/4/4 259/4/4 263/4/4
f 262/5/4 261/5/4 263/5/4
f 263/4/4 259/4/4 264/4/4
f 264/4/4 259/4/4 265/4/4
f 266/4/4 267/4/4 268/4/4
f 268/4/4 267/4/4 269/4/4
f 270/3/4 271/3/4 272/3/4
f 272/3/4 271/3/4 273/3/4
f 274/4/4 275/4/4 276/4/4
f 276/4/4 275/4/4 277/4/4
f 276/5/4 277/5/4 278/5/4
f 278/5/4 277/5/4 279/5/4
f 278/4/4 279/4/4 280/4/4
f 280/4/4 279/4/4 281/4/4
f 282/2/4 283/2/4 284/2/4
f 284/2/4 283/2/4 285/2/4
f 286/3/4 287/3/4 288/3/4
f 288/3/4 287/3/4 289/3/4
f 290/4/4 291/4/4 295/4/4
f 295/4/4 291/4/4 296/4/4
f 295/6/4 296/6/4 297/6/4
f 297/6/4 296/6/4 298/6/4
f 293/2/4 294/2/4 299/2/4
f 292/3/4 293/3/4 299/3/4
f 299/2/4 294/2/4 300/2/4
f 297/4/4 298/4/4 301/4/4
f 301/4/4 298/4/4 302/4/4
f 292/3/4 299/3/4 303/3/4
f 299/1/4 300/1/4 304/1/4
f 303/3/4 299/3/4 304/3/4
f 304/1/4 300/1/4 305/1/4
f 306/4/4 307/4/4 310/4/4
f 310/4/4 307/4/4 311/4/4
f 310/5/4 311/5/4 312/5/4
f 312/5/4 311/5/4 313/5/4
f 312/4/4 313/4/4 314/4/4
f 314/4/4 313/4/4 315/4/4
f 308/2/4 309/2/4 316/2/4
f 316/2/4 309/2/4 317/2/4
f 318/4/4 319/4/4 320/4/4
f 320/4/4 319/4/4 321/4/4
f 326/4/5 323/4/5 322/4/5
f 327/6/5 324/6/5 323/6/5
f 327/4/5 323/4/5 326/4/5
f 328/4/5 325/4/5 324/4/5
f 328/6/5 324/6/5 327/6/5
f 329/4/5 325/4/5 328/4/5
f 330/5/5 328/5/5 327/5/5
f 331/5/5 328/5/5 330/5/5
f 336/4/5 333/4/5 332/4/5
f 336/5/5 334/5/5 333/5/5
f 337/4/5 335/4/5 334/4/5
f 337/5/5 334/5/5 336/5/5
f 338/4/5 336/4/5 332/4/5
f 339/6/5 337/6/5 336/6/5
f 339/4/5 336/4/5 338/4/5
f 340/4/5 335/4/5 337/4/5
f 340/6/5 337/6/5 339/6/5
f 341/4/5 335/4/5 340/4/5
f 346/4/5 343/4/5 342/4/5
f 347/5/5 344/5/5 343/5/5
f 347/4/5 343/4/5 346/4/5
f 348/4/5 345/4/5 344/4/5
f 348/5/5 344/5/5 347/5/5
f 349/4/5 345/4/5 348/4/5
f 356/4/5 351/4/5 350/4/5
f 357/4/5 351/4/5 356/4/5
f 358/4/5 353/4/5 352/4/5
f 359/4/5 353/4/5 358/4/5
f 360/4/5 355/4/5 354/4/5
f 361/4/5 355/4/5 360/4/5
f 366/4/5 363/4/5 362/4/5
f 367/5/5 364/5/5 363/5/5
f 367/4/5 363/4/5 366/4/5
f 368/4/5 365/4/5 364/4/5
f 368/5/5 364/5/5 367/5/5
f 369/4/5 365/4/5 368/4/5
f 372/3/5 371/3/5 370/3/5
f 373/3/5 371/3/5 372/3/5
f 376/2/5 375/2/5 374/2/5
f 377/2/5 375/2/5 376/2/5
f 378/2/5 375/2/5 377/2/5
f 379/2/5 375/2/5 378/2/5
f 384/4/5 381/4/5 380/4/5
f 384/4/5 383/4/5 382/4/5
f 384/4/5 382/4/5 381/4/5
f 385/4/5 383/4/5 384/4/5
f 390/4/5 387/4/5 386/4/5
f 391/5/5 388/5/5 387/5/5
f 391/4/5 387/4/5 390/4/5
f 392/4/5 389/4/5 388/4/5
f 392/5/5 388/5/5 391/5/5
f 393/4/5 389/4/5 392/4/5
f 398/2/5 395/2/5 394/2/5
f 399/2/5 395/2/5 398/2/5
f 400/3/5 397/3/5 396/3/5
f 401/3/5 397/3/5 400/3/5
f 404/2/5 403/2/5 402/2/5
f 405/2/5 403/2/5 404/2/5
f 408/3/5 407/3/5 406/3/5
f 409/3/5 407/3/5 408/3/5
f 410/4/6 411/4/6 414/4/6
f 411/5/6 412/5/6 414/5/6
f 412/4/6 413/4/6 415/4/6
f 414/5/6 412/5/6 415/5/6
f 410/4/6 414/4/6 416/4/6
f 414/6/6 415/6/6 417/6/6
f 416/4/6 414/4/6 417/4/6
f 415/4/6 413/4/6 418/4/6
f 417/6/6 415/6/6 418/6/6
f 418/4/6 413/4/6 419/4/6
f 420/4/6 421/4/6 424/4/6
f 421/5/6 422/5/6 425/5/6
f 424/4/6 421/4/6 425/4/6
f 422/4/6 423/4/6 426/4/6
f 425/5/6 422/5/6 426/5/6
f 426/4/6 423/4/6 427/4/6
f 428/4/6 429/4/6 432/4/6
f 429/5/6 430/5/6 433/5/6
f 432/4/6 429/4/6 433/4/6
f 430/4/6 431/4/6 434/4/6
f 433/5/6 430/5/6 434/5/6
f 434/4/6 431/4/6 435/4/6
f 436/4/6 437/4/6 440/4/6
f 437/5/6 438/5/6 441/5/6
f 440/4/6 437/4/6 441/4/6
f 438/4/6 439/4/6 442/4/6
f 441/5/6 438/5/6 442/5/6
f 442/4/6 439/4/6 443/4/6
f 444/4/6 445/4/6 446/4/6
f 446/4/6 445/4/6 447/4/6
f 448/4/6 449/4/6 450/4/6
f 450/4/6 449/4/6 451/4/6
f 452/4/6 453/4/6 456/4/6
f 456/4/6 453/4/6 457/4/6
f 454/4/6 455/4/6 458/4/6
f 458/4/6 455/4/6 459/4/6
f 460/2/6 461/2/6 462/2/6
f 462/2/6 461/2/6 463/2/6
f 464/2/6 465/2/6 466/2/6
f 466/2/6 465/2/6 467/2/6
f 468/4/6 469/4/6 470/4/6
f 470/4/6 469/4/6 471/4/6
f 472/1/6 473/1/6 475/1/6
f 473/2/6 474/2/6 475/2/6
f 475/2/6 474/2/6 476/2/6
f 476/2/6 474/2/6 477/2/6
f 472/1/6 475/1/6 480/1/6
f 475/1/6 476/1/6 480/1/6
f 480/1/6 476/1/6 481/1/6
f 478/3/6 479/3/6 482/3/6
f 482/3/6 479/3/6 483/3/6
f 481/1/6 476/1/6 484/1/6
f 480/3/6 481/3/6 484/3/6
f 476/3/6 477/3/6 485/3/6
f 484/1/6 476/1/6 485/1/6
f 478/3/6 482/3/6 486/3/6
f 482/1/6 483/1/6 487/1/6
f 486/3/6 482/3/6 487/3/6
f 483/3/6 479/3/6 488/3/6
f 487/1/6 483/1/6 488/1/6
f 488/3/6 479/3/6 489/3/6
f 480/3/6 484/3/6 490/3/6
f 484/3/6 485/3/6 490/3/6
f 485/3/6 477/3/6 491/3/6
f 490/3/6 485/3/6 491/3/6
f 486/2/6 487/2/6 492/2/6
f 488/1/6 489/1/6 492/1/6
f 487/1/6 488/1/6 492/1/6
f 492/1/6 489/1/6 493/1/6
f 486/2/6 492/2/6 494/2/6
f 492/2/6 493/2/6 494/2/6
f 493/1/6 489/1/6 495/1/6
f 494/2/6 493/2/6 495/2/6
f 495/1/6 489/1/6 496/1/6
